<svg width="32" height="33" viewBox="0 0 32 33" fill="none" xmlns="http://www.w3.org/2000/svg">
<g clip-path="url(#clip0)">
<path d="M0.657532 32.8353H11.5068C16.6514 32.8353 20.8219 28.6648 20.8219 23.5203H9.9726C4.82803 23.5203 0.657532 27.6908 0.657532 32.8353Z" fill="#F22BB2"/>
<path d="M1.14285 10.1505V23.8491C6.28742 23.8491 10.4579 19.6786 10.4579 14.5341V0.835449C5.31335 0.835449 1.14285 5.00595 1.14285 10.1505Z" fill="#8C30F5"/>
<path d="M31.3425 0.835449H20.4931C15.3486 0.835449 11.1781 5.00595 11.1781 10.1505H22.0274C27.172 10.1505 31.3425 5.98002 31.3425 0.835449Z" fill="#FE9A22"/>
<path d="M31.3425 22.9726V9.27393C26.1979 9.27393 22.0274 13.4444 22.0274 18.589V32.2876C27.172 32.2876 31.3425 28.1171 31.3425 22.9726Z" fill="#2EC5CE"/>
</g>
<defs>
<clipPath id="clip0">
<rect width="32" height="32" fill="white" transform="translate(0 0.835449)"/>
</clipPath>
</defs>
</svg>
