<svg width="25" height="24" viewBox="0 0 25 24" fill="none" xmlns="http://www.w3.org/2000/svg">
<g clip-path="url(#clip0)">
<path d="M18.2917 10H24.2917L21.2917 6L18.2917 10ZM18.2917 14H24.2917L21.2917 18L18.2917 14Z" fill="#D6B1FF"/>
<path d="M1.29169 0H7.29169V24H1.29169C1.02647 24 0.772116 23.8946 0.584579 23.7071C0.397043 23.5196 0.291687 23.2652 0.291687 23V1C0.291687 0.734784 0.397043 0.480429 0.584579 0.292892C0.772116 0.105356 1.02647 0 1.29169 0Z" fill="#8C30F5"/>
<path d="M9.29169 0H15.2917C15.5569 0 15.8113 0.105356 15.9988 0.292892C16.1863 0.480429 16.2917 0.734784 16.2917 1V23C16.2917 23.2652 16.1863 23.5196 15.9988 23.7071C15.8113 23.8946 15.5569 24 15.2917 24H9.29169V0Z" fill="#2EC5CE"/>
</g>
<defs>
<clipPath id="clip0">
<rect width="24" height="24" fill="white" transform="translate(0.291687)"/>
</clipPath>
</defs>
</svg>
